<?xml version="1.0" standalone="no"?>
 <!DOCTYPE svg PUBLIC "-//W3C//DTD SVG 1.1//EN" 
 "http://www.w3.org/Graphics/SVG/1.1/DTD/svg11.dtd"> 
<svg xmlns="http://www.w3.org/2000/svg" version="1.1" 
    width="7.34568cm" height="7.62762cm" viewBox="0 0 28920 30030 ">
<title>SVG Picture created as class-D_amp-brd.svg date 2015/02/18 13:36:03 </title>
  <desc>Picture generated by PCBNEW </desc>
<g style="fill:#000000; fill-opacity:1;stroke:#000000; stroke-opacity:1;
stroke-linecap:round; stroke-linejoin:round; "
 transform="translate(0 0) scale(1 1)">
</g>
<g style="fill:#840000; fill-opacity:0.0; 
stroke:#840000; stroke-width:118.11; stroke-opacity:1; 
stroke-linecap:round; stroke-linejoin:round;">
<path d="M6613 1296
L6951 1296
" />
<path d="M6782 1886
L6782 1296
" />
<path d="M7260 1296
L7372 1296
L7429 1324
L7485 1380
L7513 1493
L7513 1689
L7485 1802
L7429 1858
L7372 1886
L7260 1886
L7204 1858
L7147 1802
L7119 1689
L7119 1493
L7147 1380
L7204 1324
L7260 1296
" />
<path d="M7766 1886
L7766 1296
L7991 1296
L8047 1324
L8075 1352
L8104 1408
L8104 1493
L8075 1549
L8047 1577
L7991 1605
L7766 1605
" />
</g>
<g style="fill:#840000; fill-opacity:0.0; 
stroke:#840000; stroke-width:39.3701; stroke-opacity:1; 
stroke-linecap:round; stroke-linejoin:round;">
</g>
<g style="fill:#840000; fill-opacity:1.0; 
stroke:#840000; stroke-width:39.3701; stroke-opacity:1; 
stroke-linecap:round; stroke-linejoin:round;">
<circle cx="8087.01" cy="24619.7" r="310.315" /> 
<circle cx="8087.01" cy="23619.7" r="310.315" /> 
<polyline style="fill-rule:evenodd;"
points="26167,4400
25206,4400
25206,3439
26167,3439
26167,4400
" /> 
<circle cx="25687" cy="1919.69" r="480.315" /> 
<polyline style="fill-rule:evenodd;"
points="26167,28600
25206,28600
25206,27639
26167,27639
26167,28600
" /> 
<circle cx="25687" cy="26119.7" r="480.315" /> 
<polyline style="fill-rule:evenodd;"
points="16456,10229
17317,10229
17317,10810
16456,10810
16456,10229
" /> 
</g>
<g style="fill:#840000; fill-opacity:1.0; 
stroke:#840000; stroke-width:620; stroke-opacity:1; 
stroke-linecap:round; stroke-linejoin:round;">
</g>
<g style="fill:#840000; fill-opacity:0.0; 
stroke:#840000; stroke-width:620; stroke-opacity:1; 
stroke-linecap:round; stroke-linejoin:round;">
<path d="M17027 11519
L16747 11519
" />
<path d="M17027 12519
L16747 12519
" />
<path d="M17027 13519
L16747 13519
" />
<path d="M17027 14519
L16747 14519
" />
<path d="M17027 15519
L16747 15519
" />
<path d="M17027 16519
L16747 16519
" />
<path d="M17027 17519
L16747 17519
" />
<path d="M17027 18519
L16747 18519
" />
<path d="M17027 19519
L16747 19519
" />
<path d="M20027 19519
L19747 19519
" />
<path d="M20027 18519
L19747 18519
" />
<path d="M20027 17519
L19747 17519
" />
<path d="M20027 16519
L19747 16519
" />
<path d="M20027 15519
L19747 15519
" />
<path d="M20027 14519
L19747 14519
" />
<path d="M20027 13519
L19747 13519
" />
<path d="M20027 12519
L19747 12519
" />
<path d="M20027 11519
L19747 11519
" />
<path d="M20027 10519
L19747 10519
" />
</g>
<g style="fill:#840000; fill-opacity:0.0; 
stroke:#840000; stroke-width:39.3701; stroke-opacity:1; 
stroke-linecap:round; stroke-linejoin:round;">
</g>
<g style="fill:#840000; fill-opacity:1.0; 
stroke:#840000; stroke-width:39.3701; stroke-opacity:1; 
stroke-linecap:round; stroke-linejoin:round;">
<polyline style="fill-rule:evenodd;"
points="23743,7692
25830,7692
25830,10015
23743,10015
23743,7692
" /> 
<polyline style="fill-rule:evenodd;"
points="23743,12023
25830,12023
25830,14346
23743,14346
23743,12023
" /> 
<polyline style="fill-rule:evenodd;"
points="25830,22346
23743,22346
23743,20023
25830,20023
25830,22346
" /> 
<polyline style="fill-rule:evenodd;"
points="25830,18015
23743,18015
23743,15692
25830,15692
25830,18015
" /> 
</g>
<g style="fill:#840000; fill-opacity:1.0; 
stroke:#840000; stroke-width:866.142; stroke-opacity:1; 
stroke-linecap:round; stroke-linejoin:round;">
</g>
<g style="fill:#840000; fill-opacity:0.0; 
stroke:#840000; stroke-width:866.142; stroke-opacity:1; 
stroke-linecap:round; stroke-linejoin:round;">
<path d="M7818 3165
L7818 3874
" />
<path d="M9432 1551
L10141 1551
" />
<path d="M9432 2535
L10141 2535
" />
<path d="M9432 4503
L10141 4503
" />
<path d="M9432 5488
L10141 5488
" />
</g>
<g style="fill:#840000; fill-opacity:0.0; 
stroke:#840000; stroke-width:39.3701; stroke-opacity:1; 
stroke-linecap:round; stroke-linejoin:round;">
</g>
<g style="fill:#840000; fill-opacity:1.0; 
stroke:#840000; stroke-width:39.3701; stroke-opacity:1; 
stroke-linecap:round; stroke-linejoin:round;">
<circle cx="13887" cy="23699.2" r="964.567" /> 
<circle cx="15776.8" cy="24919.7" r="866.142" /> 
<circle cx="13887" cy="26179.5" r="866.142" /> 
<polyline style="fill-rule:evenodd;"
points="15948,13224
15948,13814
15200,13814
15200,13224
15948,13224
" /> 
<polyline style="fill-rule:evenodd;"
points="14373,13224
14373,13814
13625,13814
13625,13224
14373,13224
" /> 
<polyline style="fill-rule:evenodd;"
points="15948,14224
15948,14814
15200,14814
15200,14224
15948,14224
" /> 
<polyline style="fill-rule:evenodd;"
points="14373,14224
14373,14814
13625,14814
13625,14224
14373,14224
" /> 
<circle cx="19387" cy="7519.69" r="275.815" /> 
<circle cx="17387" cy="7519.69" r="275.815" /> 
<circle cx="19287" cy="22519.7" r="275.815" /> 
<circle cx="17287" cy="22519.7" r="275.815" /> 
<circle cx="19387" cy="3419.69" r="275.815" /> 
<circle cx="17387" cy="3419.69" r="275.815" /> 
<circle cx="19287" cy="26619.7" r="275.815" /> 
<circle cx="17287" cy="26619.7" r="275.815" /> 
<circle cx="21187" cy="8519.69" r="275.815" /> 
<circle cx="21187" cy="10519.7" r="275.815" /> 
<circle cx="21187" cy="21519.7" r="275.815" /> 
<circle cx="21187" cy="19519.7" r="275.815" /> 
<circle cx="22187" cy="4919.69" r="275.815" /> 
<circle cx="22187" cy="6919.69" r="275.815" /> 
<circle cx="22187" cy="25119.7" r="275.815" /> 
<circle cx="22187" cy="23119.7" r="275.815" /> 
<circle cx="11387" cy="20289.8" r="492.126" /> 
<circle cx="10127.2" cy="20289.8" r="492.126" /> 
<circle cx="12646.9" cy="20289.8" r="492.126" /> 
<circle cx="10127.2" cy="21549.6" r="492.126" /> 
<circle cx="11387" cy="21549.6" r="492.126" /> 
<circle cx="12646.9" cy="21549.6" r="492.126" /> 
<circle cx="13749.2" cy="19620.5" r="492.126" /> 
<circle cx="9024.8" cy="22218.9" r="492.126" /> 
<polyline style="fill-rule:evenodd;"
points="11448,24304
11448,24934
10700,24934
10700,24304
11448,24304
" /> 
<polyline style="fill-rule:evenodd;"
points="9873,24304
9873,24934
9125,24934
9125,24304
9873,24304
" /> 
<circle cx="12003" cy="17319.7" r="275.815" /> 
<circle cx="13971" cy="17319.7" r="275.815" /> 
<polyline style="fill-rule:evenodd;"
points="12001,13781
11372,13781
11372,13033
12001,13033
12001,13781
" /> 
<polyline style="fill-rule:evenodd;"
points="12001,12206
11372,12206
11372,11458
12001,11458
12001,12206
" /> 
<polyline style="fill-rule:evenodd;"
points="13201,14681
12572,14681
12572,13933
13201,13933
13201,14681
" /> 
<polyline style="fill-rule:evenodd;"
points="13201,13106
12572,13106
12572,12358
13201,12358
13201,13106
" /> 
<circle cx="9852.36" cy="16956.7" r="492.126" /> 
<circle cx="9852.36" cy="14988.2" r="492.126" /> 
<circle cx="9852.36" cy="13019.7" r="492.126" /> 
<circle cx="7687.01" cy="14988.2" r="492.126" /> 
<circle cx="7687.01" cy="16956.7" r="492.126" /> 
<circle cx="7687.01" cy="13019.7" r="492.126" /> 
</g>
<g style="fill:#C2C2C2; fill-opacity:1.0; 
stroke:#C2C2C2; stroke-width:39.3701; stroke-opacity:1; 
stroke-linecap:round; stroke-linejoin:round;">
<circle cx="22187" cy="27519.7" r="1161.42" /> 
<circle cx="22187" cy="2519.69" r="1161.42" /> 
<circle cx="7887.01" cy="27519.7" r="1161.42" /> 
<circle cx="7887.01" cy="7219.69" r="1161.42" /> 
</g>
<g style="fill:#840000; fill-opacity:1.0; 
stroke:#840000; stroke-width:393.701; stroke-opacity:1; 
stroke-linecap:round; stroke-linejoin:round;">
</g>
<g style="fill:#840000; fill-opacity:0.0; 
stroke:#840000; stroke-width:393.701; stroke-opacity:1; 
stroke-linecap:round; stroke-linejoin:round;">
<path d="M16887 13519
L15574 13519
" />
<path d="M10899 13407
L11687 13407
" />
<path d="M10287 14019
L10899 13407
" />
<path d="M13999 13519
L11799 13519
" />
<path d="M11799 13519
L11687 13407
" />
<path d="M7687 15019
L8687 14019
" />
<path d="M8687 14019
L10287 14019
" />
<path d="M16887 14519
L15574 14519
" />
<path d="M12887 14307
L11199 14307
" />
<path d="M11199 14307
L10487 15019
" />
<path d="M13999 14519
L13099 14519
" />
<path d="M13099 14519
L12887 14307
" />
<path d="M10487 15019
L9852 15019
" />
<path d="M19887 14519
L17987 14519
" />
<path d="M17987 15519
L18087 15519
" />
<path d="M18087 15519
L17987 15519
" />
<path d="M16887 10519
L16887 11519
" />
</g>
<g style="fill:#840000; fill-opacity:0.0; 
stroke:#840000; stroke-width:787.402; stroke-opacity:1; 
stroke-linecap:round; stroke-linejoin:round;">
<path d="M16887 19519
L17387 19519
" />
<path d="M17987 18919
L17987 15519
" />
<path d="M17387 19519
L17987 18919
" />
<path d="M17987 15519
L17987 14519
" />
<path d="M17987 14519
L17987 11119
" />
<path d="M17987 11119
L17387 10519
" />
<path d="M17387 10519
L16887 10519
" />
<path d="M17387 7519
L17387 10019
" />
<path d="M17387 10019
L16887 10519
" />
<path d="M17387 3419
L17387 7519
" />
<path d="M17287 22519
L17287 19919
" />
<path d="M17287 19919
L16887 19519
" />
<path d="M17287 26619
L17287 22519
" />
<path d="M13971 17319
L13971 17703
" />
<path d="M13971 17703
L15787 19519
" />
<path d="M15787 19519
L16887 19519
" />
<path d="M19887 11519
L23121 11519
" />
<path d="M23121 11519
L24787 13185
" />
<path d="M19887 18519
L23121 18519
" />
<path d="M23121 18519
L24787 16854
" />
<path d="M24787 8854
L21521 8854
" />
<path d="M21521 8854
L21187 8519
" />
<path d="M24787 21185
L21521 21185
" />
<path d="M21521 21185
L21187 21519
" />
</g>
<g style="fill:#840000; fill-opacity:0.0; 
stroke:#840000; stroke-width:393.701; stroke-opacity:1; 
stroke-linecap:round; stroke-linejoin:round;">
<path d="M9499 24619
L8087 24619
" />
<path d="M12646 21549
L11074 23122
" />
<path d="M11074 23122
L11074 24619
" />
</g>
<g style="fill:#840000; fill-opacity:1.0; 
stroke:#840000; stroke-width:157.48; stroke-opacity:1; 
stroke-linecap:round; stroke-linejoin:round;">
<polyline style="fill-rule:evenodd;"
points="17357,17194
17254,17107
17078,17051
17005,17088
17005,17401
17012,17401
17012,17637
17005,17637
17005,17645
16768,17645
16768,17637
16768,17401
16768,17088
16768,16950
16768,16637
16335,16637
16318,16707
16379,16813
16519,16932
16695,16987
16768,16950
16768,17088
16695,17051
16519,17107
16379,17225
16318,17332
16335,17401
16768,17401
16768,17637
16335,17637
16318,17707
16379,17813
16411,17840
14999,17840
14865,17707
14865,16587
14634,16355
14634,14834
14634,14204
14616,14114
14564,14035
14541,14019
14562,14006
14615,13927
14634,13834
14634,13204
14616,13114
14564,13035
14486,12982
14393,12963
13605,12963
13515,12981
13436,13033
13400,13086
13379,13086
13379,12889
13379,12574
13379,12307
13355,12249
13310,12205
13252,12181
13190,12181
13044,12181
13005,12220
13005,12614
13339,12614
13379,12574
13379,12889
13339,12850
13005,12850
13005,12858
12768,12858
12768,12850
12768,12614
12768,12220
12729,12181
12583,12181
12521,12181
12463,12205
12418,12249
12394,12307
12394,12574
12434,12614
12768,12614
12768,12850
12434,12850
12394,12889
12394,13086
12262,13086
12262,13013
12245,12923
12193,12844
12179,12834
12179,12257
12179,11989
12179,11674
12179,11407
12155,11349
12110,11305
12052,11281
11990,11281
11844,11281
11805,11320
11805,11714
12139,11714
12179,11674
12179,11989
12139,11950
11805,11950
11805,12344
11844,12383
11990,12383
12052,12383
12110,12359
12155,12315
12179,12257
12179,12834
12114,12791
12021,12772
11568,12772
11568,12344
11568,11950
11568,11714
11568,11320
11529,11281
11383,11281
11321,11281
11263,11305
11218,11349
11194,11407
11194,11674
11234,11714
11568,11714
11568,11950
11234,11950
11194,11989
11194,12257
11218,12315
11263,12359
11321,12383
11383,12383
11529,12383
11568,12344
11568,12772
11352,12772
11262,12790
11183,12842
11130,12920
11119,12974
10899,12974
10830,12987
10830,5488
10779,5232
10634,5014
10533,4947
10642,4838
10694,4711
10694,4296
10694,2742
10679,2653
9905,2653
9905,3125
10259,3125
10476,3035
10642,2869
10694,2742
10694,4296
10642,4169
10476,4003
10259,3913
9905,3913
9905,4385
10679,4385
10694,4296
10694,4711
10679,4622
9905,4622
9905,4629
9668,4629
9668,4622
9668,4385
9668,3913
9668,3125
9668,2653
8894,2653
8879,2742
8931,2869
9097,3035
9314,3125
9668,3125
9668,3913
9314,3913
9097,4003
8931,4169
8879,4296
8894,4385
9668,4385
9668,4622
8894,4622
8879,4711
8931,4838
9040,4947
8939,5014
8794,5232
8743,5488
8794,5744
8939,5961
9156,6106
9412,6157
10161,6157
10417,6106
10634,5961
10779,5744
10830,5488
10830,12987
10733,13006
10663,13053
10593,13100
10497,13196
10533,13061
10497,12797
10465,12720
10382,12656
10215,12823
10215,12489
10151,12406
9894,12338
9630,12374
9552,12406
9488,12489
9852,12852
10215,12489
10215,12823
10019,13019
10024,13025
9857,13192
9852,13186
9685,13353
9685,13019
9321,12656
9304,12669
9304,6938
9089,6417
8690,6018
8409,5901
8409,3992
8409,3637
8409,3401
8409,3047
8318,2830
8152,2664
8025,2612
7936,2626
7936,3401
8409,3401
8409,3637
7936,3637
7936,4412
8025,4427
8152,4375
8318,4209
8409,3992
8409,5901
8170,5802
7700,5802
7700,4412
7700,3637
7700,3401
7700,2626
7611,2612
7484,2664
7318,2830
7227,3047
7227,3401
7700,3401
7700,3637
7227,3637
7227,3992
7318,4209
7484,4375
7611,4427
7700,4412
7700,5802
7606,5802
7085,6017
6686,6415
6469,6936
6469,7500
6684,8021
7083,8420
7603,8636
8167,8637
8688,8421
9087,8023
9304,7502
9304,6938
9304,12669
9239,12720
9171,12977
9207,13241
9239,13319
9321,13383
9685,13019
9685,13353
9488,13550
9517,13586
8687,13586
8521,13619
8380,13713
8368,13726
8368,13061
8332,12797
8300,12720
8217,12656
8050,12823
8050,12489
7986,12406
7729,12338
7465,12374
7387,12406
7323,12489
7687,12852
8050,12489
8050,12823
7854,13019
8217,13383
8300,13319
8368,13061
8368,13726
8050,14043
8050,13550
7687,13186
7519,13353
7519,13019
7156,12656
7073,12720
7005,12977
7041,13241
7073,13319
7156,13383
7519,13019
7519,13353
7323,13550
7387,13632
7644,13700
7908,13665
7986,13632
8050,13550
8050,14043
7848,14245
7836,14240
7538,14240
7263,14353
7053,14563
6939,14838
6938,15136
7052,15411
7262,15621
7537,15736
7835,15736
8110,15622
8320,15412
8434,15137
8435,14884
8866,14452
9329,14452
9218,14563
9104,14838
9104,15136
9217,15411
9428,15621
9702,15736
10000,15736
10275,15622
10445,15452
10487,15452
10487,15452
10652,15419
10652,15419
10793,15325
11378,14740
12319,14740
12328,14790
12380,14870
12459,14923
12552,14941
13043,14941
13043,14941
13099,14952
13400,14952
13434,15003
13513,15056
13605,15075
14393,15075
14483,15058
14562,15006
14615,14927
14634,14834
14634,16355
13819,15540
12154,15540
11208,16487
11208,18540
10600,18540
10600,16808
10486,16533
10276,16322
10001,16208
9704,16208
9429,16322
9218,16532
9104,16807
9104,17104
9217,17379
9428,17590
9702,17704
10000,17704
10275,17591
10486,17380
10600,17106
10600,16808
10600,18540
8435,18540
8435,16808
8321,16533
8111,16322
7836,16208
7538,16208
7263,16322
7053,16532
6939,16807
6938,17104
7052,17379
7262,17590
7537,17704
7835,17704
8110,17591
8320,17380
8434,17106
8435,16808
8435,18540
6365,18540
6365,2328
8511,2328
8511,998
9058,998
8939,1077
8794,1295
8743,1551
8794,1807
8939,2024
9040,2092
8931,2201
8879,2328
8894,2417
9668,2417
9668,2409
9905,2409
9905,2417
10679,2417
10694,2328
10642,2201
10533,2092
10634,2024
10779,1807
10830,1551
10779,1295
10634,1077
10515,998
16408,998
16408,9974
16346,9986
16267,10038
16214,10116
16196,10209
16196,10829
16213,10919
16265,10998
16344,11051
16437,11070
16441,11070
16347,11133
16228,11310
16187,11519
16228,11728
16347,11905
16524,12024
16682,12055
16519,12107
16379,12225
16318,12332
16335,12401
16768,12401
16768,12393
17005,12393
17005,12401
17012,12401
17012,12637
17005,12637
17005,12645
16768,12645
16768,12637
16335,12637
16318,12707
16379,12813
16519,12932
16682,12983
16524,13015
16417,13086
16173,13086
16139,13035
16060,12982
15968,12963
15180,12963
15090,12981
15011,13033
14958,13111
14939,13204
14939,13834
14957,13924
15009,14003
15032,14019
15011,14033
14958,14111
14939,14204
14939,14834
14957,14924
15009,15003
15087,15056
15180,15075
15968,15075
16058,15058
16137,15006
16173,14952
16417,14952
16517,15019
16347,15133
16228,15310
16187,15519
16228,15728
16347,15905
16524,16024
16682,16055
16519,16107
16379,16225
16318,16332
16335,16401
16768,16401
16768,16393
17005,16393
17005,16401
17012,16401
17012,16637
17005,16637
17005,16950
17078,16987
17254,16932
17357,16845
17357,17194
" /> 
<polyline style="fill-rule:evenodd;"
points="27208,14840
26427,14840
26427,4419
26427,3419
26410,3329
26358,3250
26356,3248
26356,1958
26320,1699
26290,1627
26208,1564
26041,1731
26041,1397
25979,1316
25726,1250
25467,1286
25394,1316
25332,1397
25687,1752
26041,1397
26041,1731
25854,1919
26208,2274
26290,2211
26356,1958
26356,3248
26279,3197
26187,3178
26041,3178
26041,2441
25687,2086
25519,2253
25519,1919
25165,1564
25083,1627
25017,1880
25053,2139
25083,2211
25165,2274
25519,1919
25519,2253
25332,2441
25394,2522
25647,2588
25906,2552
25979,2522
26041,2441
26041,3178
25187,3178
25096,3196
25017,3248
24964,3326
24946,3419
24946,4419
24963,4509
25015,4588
25094,4641
25187,4660
26187,4660
26277,4643
26356,4591
26409,4512
26427,4419
26427,14840
20470,14840
20545,14728
20586,14519
20545,14310
20426,14133
20256,14019
20426,13905
20545,13728
20586,13519
20545,13310
20426,13133
20256,13019
20426,12905
20545,12728
20586,12519
20545,12310
20437,12149
22860,12149
23483,12772
23483,14366
23500,14456
23552,14535
23631,14588
23724,14606
25850,14606
25940,14589
26019,14537
26072,14459
26090,14366
26090,12003
26090,10035
26090,7673
26073,7583
26021,7503
25942,7451
25850,7432
23724,7432
23633,7449
23604,7469
23604,2238
23389,1717
22990,1318
22470,1102
21906,1102
21385,1317
20986,1715
20769,2236
20769,2800
20984,3321
21383,3720
21903,3936
22467,3937
22988,3721
23387,3323
23604,2802
23604,2238
23604,7469
23554,7501
23501,7580
23483,7673
23483,8224
22718,8224
22718,6814
22718,4814
22638,4618
22488,4469
22293,4388
22081,4387
21886,4468
21736,4618
21655,4813
21655,5024
21735,5220
21885,5370
22080,5451
22292,5451
22487,5370
22637,5221
22718,5025
22718,4814
22718,6814
22638,6618
22488,6469
22293,6388
22081,6387
21886,6468
21736,6618
21655,6813
21655,7024
21735,7220
21885,7370
22080,7451
22292,7451
22487,7370
22637,7221
22718,7025
22718,6814
22718,8224
21782,8224
21632,8074
21428,7937
21187,7889
20945,7937
20741,8074
20605,8278
20557,8519
20605,8760
20741,8965
21076,9299
21280,9436
21521,9484
21521,9484
21521,9484
23483,9484
23483,10035
23500,10125
23552,10204
23631,10257
23724,10276
25850,10276
25940,10258
26019,10206
26072,10128
26090,10035
26090,12003
26073,11913
26021,11834
25942,11781
25850,11763
24255,11763
23567,11074
23362,10937
23121,10889
21648,10889
21648,10509
21617,10352
21557,10316
21390,10483
21390,10149
21353,10089
21176,10057
21020,10089
20983,10149
21187,10352
21390,10149
21390,10483
21354,10519
21557,10722
21617,10686
21648,10509
21648,10889
21390,10889
21187,10686
21019,10853
21019,10519
20816,10316
20756,10352
20725,10530
20756,10686
20816,10722
21019,10519
21019,10853
20983,10889
20304,10889
20394,10813
20455,10707
20455,10332
20394,10225
20254,10107
20078,10051
20005,10088
20005,10401
20438,10401
20455,10332
20455,10707
20438,10637
20005,10637
20005,10645
19848,10645
19848,7509
19848,3409
19817,3252
19757,3216
19590,3383
19590,3049
19553,2989
19376,2957
19220,2989
19183,3049
19387,3252
19590,3049
19590,3383
19554,3419
19757,3622
19817,3586
19848,3409
19848,7509
19817,7352
19757,7316
19590,7483
19590,7149
19590,3790
19387,3586
19219,3753
19219,3419
19016,3216
18956,3252
18925,3430
18956,3586
19016,3622
19219,3419
19219,3753
19183,3790
19220,3850
19397,3881
19553,3850
19590,3790
19590,7149
19553,7089
19376,7057
19220,7089
19183,7149
19387,7352
19590,7149
19590,7483
19554,7519
19757,7722
19817,7686
19848,7509
19848,10645
19768,10645
19768,10637
19768,10401
19768,10088
19695,10051
19590,10085
19590,7890
19387,7686
19219,7853
19219,7519
19016,7316
18956,7352
18925,7530
18956,7686
19016,7722
19219,7519
19219,7853
19183,7890
19220,7950
19397,7981
19553,7950
19590,7890
19590,10085
19519,10107
19379,10225
19318,10332
19335,10401
19768,10401
19768,10637
19335,10637
19318,10707
19379,10813
19519,10932
19611,10960
19532,11013
19524,11015
19347,11133
19228,11310
19187,11519
19228,11728
19347,11905
19517,12019
19347,12133
19228,12310
19187,12519
19228,12728
19347,12905
19517,13019
19347,13133
19228,13310
19187,13519
19228,13728
19347,13905
19517,14019
19417,14086
18616,14086
18616,11119
18568,10878
18568,10878
18432,10674
17977,10219
18016,10019
18016,7519
18016,3419
17968,3178
17832,2974
17628,2837
17387,2789
17145,2837
16941,2974
16805,3178
16765,3376
16765,998
27208,998
27208,14840
" /> 
<polyline style="fill-rule:evenodd;"
points="27208,29040
26423,29040
26423,25973
26311,25703
26104,25495
26090,25490
26090,22366
26090,20003
26090,18035
26090,15673
26073,15583
26021,15503
25942,15451
25850,15432
23724,15432
23633,15449
23554,15501
23501,15580
23483,15673
23483,17267
22860,17889
20437,17889
20545,17728
20586,17519
20545,17310
20426,17133
20249,17015
20091,16983
20254,16932
20394,16813
20455,16707
20438,16637
20005,16637
20005,16645
19768,16645
19768,16637
19335,16637
19318,16707
19379,16813
19519,16932
19682,16983
19524,17015
19347,17133
19228,17310
19187,17519
19228,17728
19347,17905
19517,18019
19347,18133
19228,18310
19187,18519
19228,18728
19347,18905
19524,19024
19532,19025
19611,19078
19519,19107
19379,19225
19318,19332
19335,19401
19768,19401
19768,19393
20005,19393
20005,19401
20438,19401
20455,19332
20394,19225
20304,19149
20983,19149
21187,19352
21390,19149
23121,19149
23362,19101
23362,19101
23567,18965
24255,18276
25850,18276
25940,18258
26019,18206
26072,18128
26090,18035
26090,20003
26073,19913
26021,19834
25942,19781
25850,19763
23724,19763
23633,19780
23554,19832
23501,19911
23483,20003
23483,20555
21648,20555
21648,19509
21617,19352
21557,19316
21354,19519
21557,19722
21617,19686
21648,19509
21648,20555
21521,20555
21521,20555
21390,20581
21390,19890
21187,19686
21019,19853
21019,19519
20816,19316
20756,19352
20725,19530
20756,19686
20816,19722
21019,19519
21019,19853
20983,19890
21020,19950
21197,19981
21353,19950
21390,19890
21390,20581
21280,20603
21076,20739
20741,21074
20605,21278
20557,21519
20605,21760
20741,21965
20945,22101
21187,22149
21428,22101
21632,21965
21782,21814
23483,21814
23483,22366
23500,22456
23552,22535
23631,22588
23724,22606
25850,22606
25940,22589
26019,22537
26072,22459
26090,22366
26090,25490
25834,25383
25541,25383
25270,25495
25063,25702
24950,25972
24950,26265
25062,26536
25269,26743
25539,26855
25832,26856
26103,26744
26310,26537
26423,26266
26423,25973
26423,29040
26344,29040
26344,28651
26344,28277
26344,27962
26344,27588
26320,27530
26276,27486
26218,27462
26155,27462
25844,27462
25805,27501
25805,28001
26305,28001
26344,27962
26344,28277
26305,28237
25805,28237
25805,28737
25844,28777
26155,28777
26218,28777
26276,28753
26320,28708
26344,28651
26344,29040
25568,29040
25568,28737
25568,28237
25568,28001
25568,27501
25529,27462
25218,27462
25155,27462
25097,27486
25053,27530
25029,27588
25029,27962
25068,28001
25568,28001
25568,28237
25068,28237
25029,28277
25029,28651
25053,28708
25097,28753
25155,28777
25218,28777
25529,28777
25568,28737
25568,29040
23604,29040
23604,27238
23389,26717
22990,26318
22718,26205
22718,25014
22718,23014
22638,22818
22488,22669
22293,22588
22081,22587
21886,22668
21736,22818
21655,23013
21655,23224
21735,23420
21885,23570
22080,23651
22292,23651
22487,23570
22637,23421
22718,23225
22718,23014
22718,25014
22638,24818
22488,24669
22293,24588
22081,24587
21886,24668
21736,24818
21655,25013
21655,25224
21735,25420
21885,25570
22080,25651
22292,25651
22487,25570
22637,25421
22718,25225
22718,25014
22718,26205
22470,26102
21906,26102
21385,26317
20986,26715
20769,27236
20769,27800
20984,28321
21383,28720
21903,28936
22467,28937
22988,28721
23387,28323
23604,27802
23604,27238
23604,29040
20455,29040
20455,19707
20438,19637
20005,19637
20005,19950
20078,19987
20254,19932
20394,19813
20455,19707
20455,29040
19768,29040
19768,19950
19768,19637
19335,19637
19318,19707
19379,19813
19519,19932
19695,19987
19768,19950
19768,29040
19748,29040
19748,26609
19748,22509
19717,22352
19657,22316
19490,22483
19490,22149
19453,22089
19276,22057
19120,22089
19083,22149
19287,22352
19490,22149
19490,22483
19454,22519
19657,22722
19717,22686
19748,22509
19748,26609
19717,26452
19657,26416
19490,26583
19490,26249
19490,22890
19287,22686
19119,22853
19119,22519
18916,22316
18856,22352
18825,22530
18856,22686
18916,22722
19119,22519
19119,22853
19083,22890
19120,22950
19297,22981
19453,22950
19490,22890
19490,26249
19453,26189
19276,26157
19120,26189
19083,26249
19287,26452
19490,26249
19490,26583
19454,26619
19657,26822
19717,26786
19748,26609
19748,29040
19490,29040
19490,26990
19287,26786
19119,26953
19119,26619
18916,26416
18856,26452
18825,26630
18856,26786
18916,26822
19119,26619
19119,26953
19083,26990
19120,27050
19297,27081
19453,27050
19490,26990
19490,29040
14942,29040
14942,26311
14912,25897
14811,25653
14690,25543
14523,25710
14523,25376
14412,25254
14018,25123
13604,25153
13361,25254
13251,25376
13887,26012
14523,25376
14523,25710
14054,26179
14690,26815
14811,26705
14942,26311
14942,29040
14523,29040
14523,26982
13887,26346
13719,26513
13719,26179
13083,25543
12962,25653
12831,26047
12861,26461
12962,26705
13083,26815
13719,26179
13719,26513
13251,26982
13361,27104
13755,27235
14169,27205
14412,27104
14523,26982
14523,29040
14517,29040
14517,27826
14421,27594
14244,27417
14012,27321
13762,27321
13530,27416
13353,27593
13257,27825
13256,28075
13352,28307
13529,28484
13761,28580
14011,28581
14243,28485
14420,28308
14516,28077
14517,27826
14517,29040
10134,29040
10134,24954
10134,24285
10116,24194
10064,24115
9986,24062
9893,24044
9105,24044
9015,24061
8936,24113
8887,24186
8584,24186
8584,23617
8547,23431
8483,23390
8316,23557
8316,23223
8275,23159
8084,23122
7898,23159
7857,23223
8087,23452
8316,23223
8316,23557
8254,23619
8483,23848
8547,23807
8584,23617
8584,24186
8454,24186
8408,24139
8267,24081
8275,24079
8316,24015
8087,23786
7919,23953
7919,23619
7690,23390
7626,23431
7589,23621
7626,23807
7690,23848
7919,23619
7919,23953
7857,24015
7898,24079
7907,24081
7766,24139
7607,24298
7520,24506
7520,24731
7606,24940
7765,25099
7973,25185
8199,25186
8407,25099
8454,25052
8888,25052
8934,25123
9013,25176
9105,25195
9893,25195
9983,25177
10062,25125
10115,25047
10134,24954
10134,29040
9304,29040
9304,27238
9089,26717
8690,26318
8170,26102
7606,26102
7085,26317
6686,26715
6469,27236
6469,27800
6684,28321
7083,28720
7603,28936
8167,28937
8688,28721
9087,28323
9304,27802
9304,27238
9304,29040
6365,29040
6365,18898
11565,18898
11565,17634
11701,17770
11896,17851
12108,17851
12303,17770
12453,17621
12534,17425
12534,17214
12454,17018
12304,16869
12109,16788
11897,16787
11702,16868
11565,17004
11565,16652
12319,15898
13654,15898
14508,16752
14508,17011
14416,16874
14212,16737
13971,16689
13729,16737
13525,16874
13389,17078
13341,17319
13341,17703
13389,17944
13525,18149
15341,19965
15545,20101
15545,20101
15787,20149
16626,20149
16657,20180
16657,22519
16657,24213
16413,23969
16000,23797
15554,23797
15142,23967
15065,24044
15107,23943
15107,23457
14922,23008
14579,22665
14497,22631
14497,19472
14383,19197
14173,18986
13898,18872
13601,18872
13326,18985
13115,19196
13001,19471
13001,19626
12796,19541
12498,19541
12223,19655
12016,19861
11811,19655
11536,19541
11238,19541
10963,19655
10756,19861
10551,19655
10276,19541
9979,19541
9703,19655
9493,19865
9379,20140
9379,20437
9492,20712
9699,20919
9493,21125
9379,21400
9379,21556
9174,21470
8876,21470
8601,21584
8391,21794
8276,22069
8276,22367
8390,22642
8600,22852
8875,22966
9172,22967
9447,22853
9658,22643
9772,22368
9772,22212
9977,22297
10275,22297
10550,22184
10757,21977
10962,22183
11237,22297
11286,22297
10768,22815
10674,22956
10641,23122
10641,24051
10590,24061
10511,24113
10458,24192
10439,24285
10439,24954
10457,25044
10509,25123
10587,25176
10680,25195
11468,25195
11558,25177
11637,25125
11690,25047
11708,24954
11708,24285
11691,24194
11639,24115
11560,24062
11507,24052
11507,23301
12511,22297
12794,22297
13070,22184
13280,21973
13394,21699
13395,21401
13281,21126
13074,20919
13280,20714
13394,20439
13394,20283
13599,20368
13897,20368
14172,20254
14382,20044
14497,19769
14497,19472
14497,22631
14130,22478
13645,22478
13196,22663
12852,23006
12666,23455
12666,23940
12851,24389
13194,24733
13643,24919
14128,24919
14577,24734
14682,24629
14654,24695
14654,25141
14824,25554
15140,25870
15552,26041
15998,26041
16411,25871
16657,25626
16657,26619
16705,26860
16841,27065
17045,27201
17287,27249
17528,27201
17732,27065
17868,26860
17916,26619
17916,22519
17916,19919
17910,19887
18432,19365
18568,19160
18568,19160
18616,18919
18616,15519
18616,14952
19417,14952
19517,15019
19347,15133
19228,15310
19187,15519
19228,15728
19347,15905
19524,16024
19682,16055
19519,16107
19379,16225
19318,16332
19335,16401
19768,16401
19768,16393
20005,16393
20005,16401
20438,16401
20455,16332
20394,16225
20254,16107
20091,16055
20249,16024
20426,15905
20545,15728
20586,15519
20545,15310
20470,15198
27208,15198
27208,29040
" /> 
</g>
<g style="fill:#FFFFFF; fill-opacity:1.0; 
stroke:#FFFFFF; stroke-width:39.3701; stroke-opacity:1; 
stroke-linecap:round; stroke-linejoin:round;">
<circle cx="22187" cy="27519.7" r="610.236" /> 
<circle cx="22187" cy="2519.69" r="610.236" /> 
<circle cx="7887.01" cy="27519.7" r="610.236" /> 
<circle cx="7887.01" cy="7219.69" r="610.236" /> 
<circle cx="8087.01" cy="24619.7" r="140.315" /> 
<circle cx="8087.01" cy="23619.7" r="140.315" /> 
<circle cx="25687" cy="3919.69" r="280.315" /> 
<circle cx="25687" cy="1919.69" r="280.315" /> 
<circle cx="25687" cy="28119.7" r="280.315" /> 
<circle cx="25687" cy="26119.7" r="280.315" /> 
<circle cx="16887" cy="10519.7" r="140.315" /> 
<circle cx="16887" cy="11519.7" r="140.315" /> 
<circle cx="16887" cy="12519.7" r="140.315" /> 
<circle cx="16887" cy="13519.7" r="140.315" /> 
<circle cx="16887" cy="14519.7" r="140.315" /> 
<circle cx="16887" cy="15519.7" r="140.315" /> 
<circle cx="16887" cy="16519.7" r="140.315" /> 
<circle cx="16887" cy="17519.7" r="140.315" /> 
<circle cx="16887" cy="18519.7" r="140.315" /> 
<circle cx="16887" cy="19519.7" r="140.315" /> 
<circle cx="19887" cy="19519.7" r="140.315" /> 
<circle cx="19887" cy="18519.7" r="140.315" /> 
<circle cx="19887" cy="17519.7" r="140.315" /> 
<circle cx="19887" cy="16519.7" r="140.315" /> 
<circle cx="19887" cy="15519.7" r="140.315" /> 
<circle cx="19887" cy="14519.7" r="140.315" /> 
<circle cx="19887" cy="13519.7" r="140.315" /> 
<circle cx="19887" cy="12519.7" r="140.315" /> 
<circle cx="19887" cy="11519.7" r="140.315" /> 
<circle cx="19887" cy="10519.7" r="140.315" /> 
<circle cx="7818.5" cy="3519.69" r="236.22" /> 
<circle cx="9787.01" cy="1551.18" r="236.22" /> 
<circle cx="9787.01" cy="2535.43" r="236.22" /> 
<circle cx="9787.01" cy="4503.94" r="236.22" /> 
<circle cx="9787.01" cy="5488.19" r="236.22" /> 
<circle cx="13887" cy="23699.2" r="669.291" /> 
<circle cx="15776.8" cy="24919.7" r="570.866" /> 
<circle cx="13887" cy="26179.5" r="570.866" /> 
<circle cx="13887" cy="27951.2" r="374.016" /> 
<circle cx="19387" cy="7519.69" r="137.815" /> 
<circle cx="17387" cy="7519.69" r="137.815" /> 
<circle cx="19287" cy="22519.7" r="137.815" /> 
<circle cx="17287" cy="22519.7" r="137.815" /> 
<circle cx="19387" cy="3419.69" r="137.815" /> 
<circle cx="17387" cy="3419.69" r="137.815" /> 
<circle cx="19287" cy="26619.7" r="137.815" /> 
<circle cx="17287" cy="26619.7" r="137.815" /> 
<circle cx="21187" cy="8519.69" r="137.815" /> 
<circle cx="21187" cy="10519.7" r="137.815" /> 
<circle cx="21187" cy="21519.7" r="137.815" /> 
<circle cx="21187" cy="19519.7" r="137.815" /> 
<circle cx="22187" cy="4919.69" r="137.815" /> 
<circle cx="22187" cy="6919.69" r="137.815" /> 
<circle cx="22187" cy="25119.7" r="137.815" /> 
<circle cx="22187" cy="23119.7" r="137.815" /> 
<circle cx="11387" cy="20289.8" r="236.22" /> 
<circle cx="10127.2" cy="20289.8" r="236.22" /> 
<circle cx="12646.9" cy="20289.8" r="236.22" /> 
<circle cx="10127.2" cy="21549.6" r="236.22" /> 
<circle cx="11387" cy="21549.6" r="236.22" /> 
<circle cx="12646.9" cy="21549.6" r="236.22" /> 
<circle cx="13749.2" cy="19620.5" r="275.591" /> 
<circle cx="9024.8" cy="22218.9" r="275.591" /> 
<circle cx="12003" cy="17319.7" r="137.815" /> 
<circle cx="13971" cy="17319.7" r="137.815" /> 
<circle cx="9852.36" cy="16956.7" r="236.22" /> 
<circle cx="9852.36" cy="14988.2" r="236.22" /> 
<circle cx="9852.36" cy="13019.7" r="236.22" /> 
<circle cx="7687.01" cy="14988.2" r="236.22" /> 
<circle cx="7687.01" cy="16956.7" r="236.22" /> 
<circle cx="7687.01" cy="13019.7" r="236.22" /> 
</g>
<g style="fill:#008484; fill-opacity:0.0; 
stroke:#008484; stroke-width:118.11; stroke-opacity:1; 
stroke-linecap:round; stroke-linejoin:round;">
<path d="M23729 2144
L23729 1694
" />
<path d="M23729 4144
L23729 3694
" />
<path d="M23954 3919
L23504 3919
" />
<path d="M23729 28344
L23729 27894
" />
<path d="M23729 26344
L23729 25894
" />
<path d="M23954 26119
L23504 26119
" />
<path d="M12781 10907
L12809 10850
L12809 10738
L12781 10682
L12724 10654
L12696 10654
L12640 10682
L12612 10738
L12612 10822
L12584 10879
L12528 10907
L12499 10907
L12443 10879
L12415 10822
L12415 10738
L12443 10682
" />
<path d="M12415 10485
L12415 10260
" />
<path d="M12218 10401
L12724 10401
L12781 10372
L12809 10316
L12809 10260
" />
<path d="M12781 9838
L12809 9894
L12809 10007
L12781 10063
L12724 10091
L12499 10091
L12443 10063
L12415 10007
L12415 9894
L12443 9838
L12499 9810
L12556 9810
L12612 10091
" />
<path d="M12809 9557
L12415 9557
" />
<path d="M12528 9557
L12471 9529
L12443 9501
L12415 9444
L12415 9388
" />
<path d="M12781 8966
L12809 9023
L12809 9135
L12781 9191
L12724 9219
L12499 9219
L12443 9191
L12415 9135
L12415 9023
L12443 8966
L12499 8938
L12556 8938
L12612 9219
" />
<path d="M12809 8601
L12781 8657
L12753 8685
L12696 8713
L12528 8713
L12471 8685
L12443 8657
L12415 8601
L12415 8516
L12443 8460
L12471 8432
L12528 8404
L12696 8404
L12753 8432
L12781 8460
L12809 8516
L12809 8601
" />
<path d="M12809 7448
L12499 7448
L12443 7476
L12415 7532
L12415 7645
L12443 7701
" />
<path d="M12781 7448
L12809 7504
L12809 7645
L12781 7701
L12724 7729
L12668 7729
L12612 7701
L12584 7645
L12584 7504
L12556 7448
" />
<path d="M12809 7167
L12415 7167
" />
<path d="M12471 7167
L12443 7138
L12415 7082
L12415 6998
L12443 6942
L12499 6913
L12809 6913
" />
<path d="M12499 6913
L12443 6885
L12415 6829
L12415 6745
L12443 6688
L12499 6660
L12809 6660
" />
<path d="M12415 6379
L13006 6379
" />
<path d="M12443 6379
L12415 6323
L12415 6210
L12443 6154
L12471 6126
L12528 6098
L12696 6098
L12753 6126
L12781 6154
L12809 6210
L12809 6323
L12781 6379
" />
<path d="M12809 5760
L12781 5817
L12724 5845
L12218 5845
" />
<path d="M12809 5535
L12415 5535
" />
<path d="M12218 5535
L12246 5564
L12274 5535
L12246 5507
L12218 5535
L12274 5535
" />
<path d="M12415 5339
L12415 5114
" />
<path d="M12809 5254
L12303 5254
L12246 5226
L12218 5170
L12218 5114
" />
<path d="M12809 4917
L12415 4917
" />
<path d="M12218 4917
L12246 4945
L12274 4917
L12246 4889
L12218 4917
L12274 4917
" />
<path d="M12781 4411
L12809 4467
L12809 4579
L12781 4636
L12724 4664
L12499 4664
L12443 4636
L12415 4579
L12415 4467
L12443 4411
L12499 4383
L12556 4383
L12612 4664
" />
<path d="M12809 4129
L12415 4129
" />
<path d="M12528 4129
L12471 4101
L12443 4073
L12415 4017
L12415 3961
" />
<path d="M13754 10569
L13754 10907
" />
<path d="M13754 10738
L13163 10738
L13247 10794
L13304 10850
L13332 10907
" />
<path d="M13163 10204
L13163 10147
L13191 10091
L13219 10063
L13276 10035
L13388 10007
L13529 10007
L13641 10035
L13697 10063
L13726 10091
L13754 10147
L13754 10204
L13726 10260
L13697 10288
L13641 10316
L13529 10344
L13388 10344
L13276 10316
L13219 10288
L13191 10260
L13163 10204
" />
<path d="M13163 9810
L13754 9669
L13332 9557
L13754 9444
L13163 9304
" />
<path d="M13726 8376
L13754 8432
L13754 8544
L13726 8601
L13697 8629
L13641 8657
L13472 8657
L13416 8629
L13388 8601
L13360 8544
L13360 8432
L13388 8376
" />
<path d="M13754 8038
L13726 8095
L13669 8123
L13163 8123
" />
<path d="M13754 7560
L13444 7560
L13388 7588
L13360 7645
L13360 7757
L13388 7813
" />
<path d="M13726 7560
L13754 7616
L13754 7757
L13726 7813
L13669 7841
L13613 7841
L13557 7813
L13529 7757
L13529 7616
L13501 7560
" />
<path d="M13726 7307
L13754 7251
L13754 7138
L13726 7082
L13669 7054
L13641 7054
L13585 7082
L13557 7138
L13557 7223
L13529 7279
L13472 7307
L13444 7307
L13388 7279
L13360 7223
L13360 7138
L13388 7082
" />
<path d="M13726 6829
L13754 6773
L13754 6660
L13726 6604
L13669 6576
L13641 6576
L13585 6604
L13557 6660
L13557 6745
L13529 6801
L13472 6829
L13444 6829
L13388 6801
L13360 6745
L13360 6660
L13388 6604
" />
<path d="M13529 6323
L13529 5873
" />
<path d="M13754 5592
L13163 5592
L13163 5451
L13191 5367
L13247 5311
L13304 5282
L13416 5254
L13501 5254
L13613 5282
L13669 5311
L13726 5367
L13754 5451
L13754 5592
" />
<path d="M14108 10710
L14530 10710
L14614 10738
L14670 10794
L14699 10879
L14699 10935
" />
<path d="M14699 10429
L14108 10429
" />
<path d="M14699 10091
L14361 10344
" />
<path d="M14108 10091
L14445 10429
" />
<path d="M14108 9838
L14586 9838
L14642 9810
L14670 9782
L14699 9726
L14699 9613
L14670 9557
L14642 9529
L14586 9501
L14108 9501
" />
<path d="M14670 9191
L14699 9191
L14755 9219
L14783 9248
" />
<path d="M14699 8488
L14108 8488
" />
<path d="M14699 8207
L14108 8207
L14530 8010
L14108 7813
L14699 7813
" />
<path d="M14389 7532
L14389 7335
" />
<path d="M14699 7251
L14699 7532
L14108 7532
L14108 7251
" />
<path d="M14670 6970
L14699 6970
L14755 6998
L14783 7026
" />
<path d="M14164 6295
L14136 6267
L14108 6210
L14108 6070
L14136 6014
L14164 5985
L14220 5957
L14277 5957
L14361 5985
L14699 6323
L14699 5957
" />
<path d="M14108 5592
L14108 5535
L14136 5479
L14164 5451
L14220 5423
L14333 5395
L14474 5395
L14586 5423
L14642 5451
L14670 5479
L14699 5535
L14699 5592
L14670 5648
L14642 5676
L14586 5704
L14474 5732
L14333 5732
L14220 5704
L14164 5676
L14136 5648
L14108 5592
" />
<path d="M14699 4832
L14699 5170
" />
<path d="M14699 5001
L14108 5001
L14192 5057
L14249 5114
L14277 5170
" />
<path d="M14108 4298
L14108 4579
L14389 4607
L14361 4579
L14333 4523
L14333 4383
L14361 4326
L14389 4298
L14445 4270
L14586 4270
L14642 4298
L14670 4326
L14699 4383
L14699 4523
L14670 4579
L14642 4607
" />
</g>
<g style="fill:#008484; fill-opacity:0.0; 
stroke:#008484; stroke-width:59.0551; stroke-opacity:1; 
stroke-linecap:round; stroke-linejoin:round;">
<path d="M8587 23399
L7587 23399
" />
<path d="M7702.94 24480.7 A600 600 0.0 0 0 8087.01 24619.7 " />
<path d="M8087.19 24618.9 A599.256 599.256 0.0 0 0 8485.01 24467.7 " />
<path d="M8086.99 23420.4 A599.27 599.27 0.0 0 0 7697.01 23564.7 " />
<path d="M8471.07 23558.7 A600 600 0.0 0 0 8087.01 23419.7 " />
<path d="M7737.73 23531.8 A600 600 0.0 0 0 7487.01 24019.7 " />
<path d="M7487.01 24020 A600 600 0.0 0 0 7727.01 24499.7 " />
<path d="M8686.3 24019.5 A599.294 599.294 0.0 0 0 8455.01 23546.7 " />
<path d="M8455.58 24493.1 A600 600 0.0 0 0 8687.01 24019.7 " />
<path d="M7837.01 24019.7 A250 250 0.0 0 0 8087.01 24269.7 " />
<path d="M7687.01 24019.7 A400 400 0.0 0 0 8087.01 24419.7 " />
<path d="M8337.01 24019.7 A250 250 0.0 0 0 8087.01 23769.7 " />
<path d="M8487.01 24019.7 A400 400 0.0 0 0 8087.01 23619.7 " />
<path d="M7573.85 23406 A800 800 0.0 0 0 7287.01 24019.7 " />
<path d="M7288.01 24020.1 A799 799 0.0 0 0 7711.01 24724.7 " />
<path d="M8885.98 24018.7 A798.972 798.972 0.0 0 0 8603.01 23409.7 " />
<path d="M8484.59 24713.9 A800 800 0.0 0 0 8887.01 24019.7 " />
<path d="M7707.74 24724.1 A800 800 0.0 0 0 8087.01 24819.7 " />
<path d="M8087.05 24819.3 A799.576 799.576 0.0 0 0 8506.01 24700.7 " />
<path d="M26687 919
L26687 4919
" />
<path d="M27187 919
L24187 919
" />
<path d="M24187 919
L24187 4919
" />
<path d="M24187 4919
L27187 4919
" />
<path d="M27187 4919
L27187 919
" />
<path d="M26687 25119
L26687 29119
" />
<path d="M27187 25119
L24187 25119
" />
<path d="M24187 25119
L24187 29119
" />
<path d="M24187 29119
L27187 29119
" />
<path d="M27187 29119
L27187 25119
" />
<path d="M18887 9519
L18887 10019
" />
<path d="M18887 10019
L17887 10019
" />
<path d="M17887 10019
L17887 9519
" />
<path d="M19387 9519
L19387 20519
" />
<path d="M19387 20519
L17387 20519
" />
<path d="M17387 20519
L17387 9519
" />
<path d="M17387 9519
L19387 9519
" />
<circle cx="23606" cy="10192.7" r="154.029" /> 
<path d="M23488 12948
L23448 12988
" />
<path d="M23448 12988
L23291 13027
" />
<path d="M23291 13027
L23094 12988
" />
<path d="M23094 12988
L22976 12909
" />
<path d="M22976 12909
L22818 12791
" />
<path d="M22818 12791
L22779 12594
" />
<path d="M22779 12594
L22818 12397
" />
<path d="M22818 12397
L22937 12239
" />
<path d="M22937 12239
L22976 12200
" />
<path d="M22976 12200
L22818 11964
" />
<path d="M22818 11964
L22700 11649
" />
<path d="M22700 11649
L22622 11255
" />
<path d="M22622 11255
L22622 10783
" />
<path d="M22622 10783
L22700 10428
" />
<path d="M22700 10428
L22779 10192
" />
<path d="M22779 10192
L22858 9995
" />
<path d="M22858 9995
L22937 9838
" />
<path d="M22937 9838
L22858 9720
" />
<path d="M22858 9720
L22779 9484
" />
<path d="M22779 9484
L22818 9326
" />
<path d="M22818 9326
L22897 9208
" />
<path d="M22897 9208
L22976 9090
" />
<path d="M22976 9090
L23173 9011
" />
<path d="M23173 9011
L23370 9050
" />
<path d="M23370 9050
L23527 9129
" />
<path d="M26086 12948
L26204 12988
" />
<path d="M26204 12988
L26362 13027
" />
<path d="M26362 13027
L26480 12988
" />
<path d="M26480 12988
L26637 12909
" />
<path d="M26637 12909
L26716 12791
" />
<path d="M26716 12791
L26795 12673
" />
<path d="M26795 12673
L26795 12554
" />
<path d="M26795 12554
L26756 12436
" />
<path d="M26756 12436
L26716 12318
" />
<path d="M26716 12318
L26598 12200
" />
<path d="M26598 12200
L26716 12043
" />
<path d="M26716 12043
L26795 11885
" />
<path d="M26795 11885
L26874 11688
" />
<path d="M26874 11688
L26952 11373
" />
<path d="M26952 11373
L26992 11019
" />
<path d="M26992 11019
L26952 10704
" />
<path d="M26952 10704
L26874 10350
" />
<path d="M26874 10350
L26716 9995
" />
<path d="M26716 9995
L26637 9838
" />
<path d="M26637 9838
L26716 9720
" />
<path d="M26716 9720
L26795 9562
" />
<path d="M26795 9562
L26756 9365
" />
<path d="M26756 9365
L26677 9208
" />
<path d="M26677 9208
L26559 9090
" />
<path d="M26559 9090
L26362 9011
" />
<path d="M26362 9011
L26165 9050
" />
<path d="M26165 9050
L26047 9129
" />
<path d="M23488 8578
L22346 8578
" />
<path d="M22346 8578
L22346 13460
" />
<path d="M22346 13460
L23488 13460
" />
<path d="M27228 13460
L27228 8578
" />
<path d="M27228 8578
L26086 8578
" />
<path d="M27228 13460
L26086 13460
" />
<circle cx="25968" cy="19846.7" r="154.029" /> 
<path d="M26086 17090
L26126 17050
" />
<path d="M26126 17050
L26283 17011
" />
<path d="M26283 17011
L26480 17050
" />
<path d="M26480 17050
L26598 17129
" />
<path d="M26598 17129
L26756 17247
" />
<path d="M26756 17247
L26795 17444
" />
<path d="M26795 17444
L26756 17641
" />
<path d="M26756 17641
L26637 17799
" />
<path d="M26637 17799
L26598 17838
" />
<path d="M26598 17838
L26756 18074
" />
<path d="M26756 18074
L26874 18389
" />
<path d="M26874 18389
L26952 18783
" />
<path d="M26952 18783
L26952 19255
" />
<path d="M26952 19255
L26874 19610
" />
<path d="M26874 19610
L26795 19846
" />
<path d="M26795 19846
L26716 20043
" />
<path d="M26716 20043
L26637 20200
" />
<path d="M26637 20200
L26716 20318
" />
<path d="M26716 20318
L26795 20554
" />
<path d="M26795 20554
L26756 20712
" />
<path d="M26756 20712
L26677 20830
" />
<path d="M26677 20830
L26598 20948
" />
<path d="M26598 20948
L26401 21027
" />
<path d="M26401 21027
L26204 20988
" />
<path d="M26204 20988
L26047 20909
" />
<path d="M23488 17090
L23370 17050
" />
<path d="M23370 17050
L23212 17011
" />
<path d="M23212 17011
L23094 17050
" />
<path d="M23094 17050
L22937 17129
" />
<path d="M22937 17129
L22858 17247
" />
<path d="M22858 17247
L22779 17365
" />
<path d="M22779 17365
L22779 17484
" />
<path d="M22779 17484
L22818 17602
" />
<path d="M22818 17602
L22858 17720
" />
<path d="M22858 17720
L22976 17838
" />
<path d="M22976 17838
L22858 17995
" />
<path d="M22858 17995
L22779 18153
" />
<path d="M22779 18153
L22700 18350
" />
<path d="M22700 18350
L22622 18665
" />
<path d="M22622 18665
L22582 19019
" />
<path d="M22582 19019
L22622 19334
" />
<path d="M22622 19334
L22700 19688
" />
<path d="M22700 19688
L22858 20043
" />
<path d="M22858 20043
L22937 20200
" />
<path d="M22937 20200
L22858 20318
" />
<path d="M22858 20318
L22779 20476
" />
<path d="M22779 20476
L22818 20673
" />
<path d="M22818 20673
L22897 20830
" />
<path d="M22897 20830
L23015 20948
" />
<path d="M23015 20948
L23212 21027
" />
<path d="M23212 21027
L23409 20988
" />
<path d="M23409 20988
L23527 20909
" />
<path d="M26086 21460
L27228 21460
" />
<path d="M27228 21460
L27228 16578
" />
<path d="M27228 16578
L26086 16578
" />
<path d="M22346 16578
L22346 21460
" />
<path d="M22346 21460
L23488 21460
" />
<path d="M22346 16578
L23488 16578
" />
<path d="M6440 4700
L5259 4700
" />
<path d="M5259 4700
L5259 2338
" />
<path d="M5259 2338
L6440 2338
" />
<path d="M6440 1157
L10771 1157
" />
<path d="M10771 1157
L10771 5881
" />
<path d="M10771 5881
L6440 5881
" />
<path d="M6440 5881
L6440 1157
" />
<path d="M15658 29132
L15658 23423
" />
<path d="M15658 23423
L12115 23423
" />
<path d="M12115 23423
L12115 29132
" />
<path d="M12115 29132
L15658 29132
" />
<path d="M14393 13923
L15180 13923
" />
<path d="M15180 13116
L14393 13116
" />
<path d="M14393 14923
L15180 14923
" />
<path d="M15180 14116
L14393 14116
" />
<path d="M17387 6319
L17387 6719
" />
<path d="M17187 6519
L17587 6519
" />
<circle cx="18387" cy="7519.69" r="2000" /> 
<path d="M17287 21319
L17287 21719
" />
<path d="M17087 21519
L17487 21519
" />
<circle cx="18287" cy="22519.7" r="2000" /> 
<path d="M17387 2219
L17387 2619
" />
<path d="M17187 2419
L17587 2419
" />
<circle cx="18387" cy="3419.69" r="2000" /> 
<path d="M17287 25419
L17287 25819
" />
<path d="M17087 25619
L17487 25619
" />
<circle cx="18287" cy="26619.7" r="2000" /> 
<path d="M20687 11019
L21687 11019
" />
<path d="M21687 11019
L21687 8019
" />
<path d="M21687 8019
L20687 8019
" />
<path d="M20687 8019
L20687 11019
" />
<path d="M21687 19019
L20687 19019
" />
<path d="M20687 19019
L20687 22019
" />
<path d="M20687 22019
L21687 22019
" />
<path d="M21687 22019
L21687 19019
" />
<path d="M20987 6919
L21387 6919
" />
<path d="M21187 7119
L21187 6719
" />
<circle cx="22187" cy="5919.69" r="2000" /> 
<path d="M23387 23119
L22987 23119
" />
<path d="M23187 22919
L23187 23319
" />
<circle cx="22187" cy="24119.7" r="2000" /> 
<path d="M4103 21588
L8946 21588
" />
<path d="M4103 20250
L8946 20250
" />
<path d="M13827 19344
L13827 22494
" />
<path d="M8946 19344
L8946 22494
" />
<path d="M13827 19344
L8946 19344
" />
<path d="M8946 22494
L13827 22494
" />
<path d="M5048 21588
L5048 20250
" />
<path d="M4772 20250
L4772 21588
" />
<path d="M8906 20250
L8906 19738
" />
<path d="M8512 20250
L8512 19738
" />
<path d="M8512 19738
L8906 22140
" />
<path d="M8906 22140
L8906 21588
" />
<path d="M8119 20250
L8119 19738
" />
<path d="M8119 19738
L8512 22140
" />
<path d="M8512 22140
L8512 21588
" />
<path d="M7725 20250
L7725 19738
" />
<path d="M7725 19738
L8119 22140
" />
<path d="M8119 22140
L8119 21588
" />
<path d="M7331 20250
L7331 19738
" />
<path d="M7331 19738
L7725 22140
" />
<path d="M7725 22140
L7725 21588
" />
<path d="M6938 20250
L6938 19738
" />
<path d="M6938 19738
L7331 22140
" />
<path d="M7331 22140
L7331 21588
" />
<path d="M6544 19738
L6938 22140
" />
<path d="M6938 22140
L6938 21588
" />
<path d="M6347 19620
L6544 19620
" />
<path d="M6544 19620
L6544 22218
" />
<path d="M6544 22218
L6347 22218
" />
<path d="M4103 20250
L4103 21588
" />
<path d="M6347 19620
L6347 22218
" />
<path d="M9893 24196
L10680 24196
" />
<path d="M10680 25042
L9893 25042
" />
<circle cx="12987" cy="17319.7" r="1575" /> 
<path d="M12110 12225
L12110 13013
" />
<path d="M11263 13013
L11263 12225
" />
<path d="M13310 13125
L13310 13913
" />
<path d="M12463 13913
L12463 13125
" />
<path d="M14246 1762
L14825 1620
" />
<path d="M14825 1620
L14407 1510
" />
<path d="M14407 1510
L14829 1388
" />
<path d="M14829 1388
L14258 1254
" />
<path d="M14518 2321
L14514 2010
" />
<path d="M14514 2010
L14518 2006
" />
<path d="M14518 2006
L14514 2006
" />
<path d="M14234 1990
L14841 1990
" />
<path d="M14230 2340
L14848 2340
" />
<path d="M14848 2340
L14844 2336
" />
<path d="M14270 2557
L14238 2695
" />
<path d="M14238 2695
L14234 2821
" />
<path d="M14234 2821
L14313 2915
" />
<path d="M14313 2915
L14419 2927
" />
<path d="M14419 2927
L14514 2832
" />
<path d="M14514 2832
L14565 2679
" />
<path d="M14565 2679
L14628 2608
" />
<path d="M14628 2608
L14746 2592
" />
<path d="M14746 2592
L14833 2683
" />
<path d="M14833 2683
L14844 2809
" />
<path d="M14844 2809
L14801 2947
" />
<path d="M14230 3356
L14238 3454
" />
<path d="M14238 3454
L14333 3549
" />
<path d="M14333 3549
L14526 3584
" />
<path d="M14526 3584
L14663 3573
" />
<path d="M14663 3573
L14789 3494
" />
<path d="M14789 3494
L14837 3395
" />
<path d="M14837 3395
L14809 3273
" />
<path d="M14809 3273
L14738 3187
" />
<path d="M14738 3187
L14557 3159
" />
<path d="M14557 3159
L14396 3179
" />
<path d="M14396 3179
L14285 3222
" />
<path d="M14285 3222
L14234 3364
" />
<path d="M13553 3120
L13774 3222
" />
<path d="M13774 3222
L13978 3010
" />
<path d="M13978 3010
L13872 2805
" />
<path d="M13872 2805
L13935 2695
" />
<path d="M13927 2128
L13852 1998
" />
<path d="M13852 1998
L13982 1825
" />
<path d="M13982 1825
L13789 1639
" />
<path d="M13789 1639
L13600 1750
" />
<path d="M13600 1750
L13415 1675
" />
<path d="M13415 1675
L13341 1435
" />
<path d="M13341 1435
L13073 1435
" />
<path d="M13073 1435
L13018 1655
" />
<path d="M13018 1655
L12793 1734
" />
<path d="M12793 1734
L12608 1628
" />
<path d="M12608 1628
L12407 1813
" />
<path d="M12407 1813
L12510 2017
" />
<path d="M12510 2017
L12431 2202
" />
<path d="M12431 2202
L12218 2269
" />
<path d="M12218 2269
L12211 2541
" />
<path d="M12211 2541
L12427 2624
" />
<path d="M12427 2624
L12494 2789
" />
<path d="M12494 2789
L12388 3006
" />
<path d="M12388 3006
L12596 3210
" />
<path d="M12596 3210
L12809 3112
" />
<path d="M12809 3112
L12998 3179
" />
<path d="M12998 3179
L13037 3395
" />
<path d="M13037 3395
L13313 3399
" />
<path d="M13313 3399
L13392 3179
" />
<path d="M13392 3179
L13549 3124
" />
<path d="M13541 2281
L13482 2163
" />
<path d="M13482 2163
L13404 2084
" />
<path d="M13404 2084
L13246 2025
" />
<path d="M13246 2025
L13089 2025
" />
<path d="M13089 2025
L12951 2084
" />
<path d="M12951 2084
L12813 2262
" />
<path d="M12813 2262
L12793 2439
" />
<path d="M12793 2439
L12833 2596
" />
<path d="M12833 2596
L12970 2754
" />
<path d="M12970 2754
L13148 2813
" />
<path d="M13148 2813
L13344 2793
" />
<path d="M13344 2793
L13463 2695
" />
<path d="M13463 2695
L13541 2557
" />
<path d="M13541 2557
L13935 2695
" />
<path d="M13541 2281
L13935 2124
" />
<path d="M187 14730
L187 13980
" />
<path d="M187 15230
L187 15980
" />
<path d="M2687 14730
L2687 15230
" />
<path d="M2687 15230
L187 15230
" />
<path d="M2687 14730
L187 14730
" />
<path d="M4187 16230
L437 16230
" />
<path d="M437 16230
L187 15980
" />
<path d="M187 13980
L437 13730
" />
<path d="M437 13730
L4187 13730
" />
<path d="M6187 18480
L11187 18480
" />
<path d="M6187 11480
L11187 11480
" />
<path d="M11187 11480
L11187 18480
" />
<path d="M6187 13480
L4187 13480
" />
<path d="M4187 13480
L4187 16480
" />
<path d="M4187 16480
L6187 16480
" />
<path d="M6187 18480
L6187 11480
" />
<path d="M8265 24310
L7871 24310
L7871 24216
L7890 24160
L7927 24122
L7965 24104
L8040 24085
L8096 24085
L8171 24104
L8208 24122
L8246 24160
L8265 24216
L8265 24310
" />
<path d="M8265 23710
L8265 23935
" />
<path d="M8265 23822
L7871 23822
L7927 23860
L7965 23897
L7983 23935
" />
<path d="M7065 25228
L6671 25228
L6671 25078
L6690 25041
L6708 25022
L6746 25003
L6802 25003
L6840 25022
L6858 25041
L6877 25078
L6877 25228
" />
<path d="M6671 24872
L7065 24778
L6783 24703
L7065 24628
L6671 24535
" />
<path d="M7065 24160
L6877 24291
" />
<path d="M7065 24385
L6671 24385
L6671 24235
L6690 24197
L6708 24179
L6746 24160
L6802 24160
L6840 24179
L6858 24197
L6877 24235
L6877 24385
" />
<path d="M7102 24085
L7102 23785
" />
<path d="M7065 23504
L7065 23691
L6671 23691
" />
<path d="M6858 23372
L6858 23241
" />
<path d="M7065 23185
L7065 23372
L6671 23372
L6671 23185
" />
<path d="M7065 23016
L6671 23016
L6671 22922
L6690 22866
L6727 22829
L6765 22810
L6840 22791
L6896 22791
L6971 22810
L7008 22829
L7046 22866
L7065 22922
L7065 23016
" />
<path d="M25865 3210
L25471 3210
L25471 3060
L25490 3022
L25508 3004
L25546 2985
L25602 2985
L25640 3004
L25658 3022
L25677 3060
L25677 3210
" />
<path d="M25508 2835
L25490 2816
L25471 2779
L25471 2685
L25490 2647
L25508 2629
L25546 2610
L25583 2610
L25640 2629
L25865 2854
L25865 2610
" />
<path d="M26965 6194
L26965 6382
L26571 6382
" />
<path d="M26758 6063
L26758 5932
" />
<path d="M26965 5875
L26965 6063
L26571 6063
L26571 5875
" />
<path d="M26758 5575
L26758 5707
" />
<path d="M26965 5707
L26571 5707
L26571 5519
" />
<path d="M26571 5425
L26571 5201
" />
<path d="M26965 5313
L26571 5313
" />
<path d="M25865 27410
L25471 27410
L25471 27260
L25490 27222
L25508 27204
L25546 27185
L25602 27185
L25640 27204
L25658 27222
L25677 27260
L25677 27410
" />
<path d="M25471 27054
L25471 26810
L25621 26941
L25621 26885
L25640 26847
L25658 26829
L25696 26810
L25790 26810
L25827 26829
L25846 26847
L25865 26885
L25865 26997
L25846 27035
L25827 27054
" />
<path d="M26865 24644
L26677 24775
" />
<path d="M26865 24869
L26471 24869
L26471 24719
L26490 24682
L26508 24663
L26546 24644
L26602 24644
L26640 24663
L26658 24682
L26677 24719
L26677 24869
" />
<path d="M26865 24475
L26471 24475
" />
<path d="M26490 24082
L26471 24119
L26471 24175
L26490 24232
L26527 24269
L26565 24288
L26640 24307
L26696 24307
L26771 24288
L26808 24269
L26846 24232
L26865 24175
L26865 24138
L26846 24082
L26827 24063
L26696 24063
L26696 24138
" />
<path d="M26865 23894
L26471 23894
" />
<path d="M26658 23894
L26658 23669
" />
<path d="M26865 23669
L26471 23669
" />
<path d="M26471 23538
L26471 23313
" />
<path d="M26865 23426
L26471 23426
" />
<path d="M18671 11819
L18990 11819
L19027 11800
L19046 11782
L19065 11744
L19065 11669
L19046 11632
L19027 11613
L18990 11594
L18671 11594
" />
<path d="M19065 11200
L19065 11425
" />
<path d="M19065 11313
L18671 11313
L18727 11350
L18765 11388
L18783 11425
" />
<path d="M15671 12731
L15671 12507
" />
<path d="M16065 12619
L15671 12619
" />
<path d="M16065 12375
L15671 12375
L15671 12225
L15690 12188
L15708 12169
L15746 12150
L15802 12150
L15840 12169
L15858 12188
L15877 12225
L15877 12375
" />
<path d="M15952 12000
L15952 11813
" />
<path d="M16065 12038
L15671 11907
L16065 11775
" />
<path d="M15671 11682
L15671 11438
L15821 11569
L15821 11513
L15840 11475
L15858 11457
L15896 11438
L15990 11438
L16027 11457
L16046 11475
L16065 11513
L16065 11625
L16046 11663
L16027 11682
" />
<path d="M16065 11063
L16065 11288
" />
<path d="M16065 11175
L15671 11175
L15727 11213
L15765 11250
L15783 11288
" />
<path d="M15708 10913
L15690 10894
L15671 10857
L15671 10763
L15690 10725
L15708 10707
L15746 10688
L15783 10688
L15840 10707
L16065 10932
L16065 10688
" />
<path d="M15671 10332
L15671 10519
L15858 10538
L15840 10519
L15821 10482
L15821 10388
L15840 10351
L15858 10332
L15896 10313
L15990 10313
L16027 10332
L16046 10351
L16065 10388
L16065 10482
L16046 10519
L16027 10538
" />
<path d="M16065 10144
L15671 10144
L15671 10051
L15690 9994
L15727 9957
L15765 9938
L15840 9919
L15896 9919
L15971 9938
L16008 9957
L16046 9994
L16065 10051
L16065 10144
" />
<path d="M15708 9769
L15690 9751
L15671 9713
L15671 9619
L15690 9582
L15708 9563
L15746 9544
L15783 9544
L15840 9563
L16065 9788
L16065 9544
" />
<path d="M26065 11085
L26065 11272
L25671 11272
" />
<path d="M25708 10972
L25690 10954
L25671 10916
L25671 10822
L25690 10785
L25708 10766
L25746 10747
L25783 10747
L25840 10766
L26065 10991
L26065 10747
" />
<path d="M26065 19085
L26065 19272
L25671 19272
" />
<path d="M25671 18991
L25671 18747
L25821 18879
L25821 18822
L25840 18785
L25858 18766
L25896 18747
L25990 18747
L26027 18766
L26046 18785
L26065 18822
L26065 18935
L26046 18972
L26027 18991
" />
<path d="M6755 2404
L6755 2685
L6737 2741
L6699 2779
L6643 2797
L6605 2797
" />
<path d="M7149 2797
L6924 2797
" />
<path d="M7036 2797
L7036 2404
L6999 2460
L6961 2497
L6924 2516
" />
<path d="M6777 5497
L6740 5479
L6721 5441
L6721 5104
" />
<path d="M6927 5497
L6927 5235
" />
<path d="M6927 5104
L6908 5122
L6927 5141
L6946 5122
L6927 5104
L6927 5141
" />
<path d="M7115 5235
L7115 5497
" />
<path d="M7115 5272
L7133 5254
L7171 5235
L7227 5235
L7265 5254
L7283 5291
L7283 5497
" />
<path d="M7621 5479
L7583 5497
L7508 5497
L7471 5479
L7452 5441
L7452 5291
L7471 5254
L7508 5235
L7583 5235
L7621 5254
L7640 5291
L7640 5329
L7452 5366
" />
<path d="M7808 5347
L8108 5347
" />
<path d="M8296 5497
L8296 5235
" />
<path d="M8296 5104
L8277 5122
L8296 5141
L8315 5122
L8296 5104
L8296 5141
" />
<path d="M8483 5235
L8483 5497
" />
<path d="M8483 5272
L8502 5254
L8540 5235
L8596 5235
L8633 5254
L8652 5291
L8652 5497
" />
<path d="M12897 28536
L12926 28564
L12954 28649
L12954 28705
L12926 28789
L12869 28846
L12813 28874
L12701 28902
L12616 28902
L12504 28874
L12447 28846
L12391 28789
L12363 28705
L12363 28649
L12391 28564
L12419 28536
" />
<path d="M12363 28171
L12363 28058
L12391 28002
L12447 27946
L12560 27918
L12757 27918
L12869 27946
L12926 28002
L12954 28058
L12954 28171
L12926 28227
L12869 28283
L12757 28311
L12560 28311
L12447 28283
L12391 28227
L12363 28171
" />
<path d="M12954 27665
L12363 27665
L12954 27327
L12363 27327
" />
<path d="M12954 26737
L12954 27074
" />
<path d="M12954 26905
L12363 26905
L12447 26961
L12504 27018
L12532 27074
" />
<path d="M11854 28513
L11854 28850
" />
<path d="M11854 28682
L11263 28682
L11347 28738
L11404 28794
L11432 28850
" />
<path d="M11319 28288
L11291 28260
L11263 28203
L11263 28063
L11291 28007
L11319 27978
L11376 27950
L11432 27950
L11516 27978
L11854 28316
L11854 27950
" />
<path d="M11629 27697
L11629 27247
" />
<path d="M11319 26994
L11291 26966
L11263 26910
L11263 26769
L11291 26713
L11319 26685
L11376 26657
L11432 26657
L11516 26685
L11854 27022
L11854 26657
" />
<path d="M11460 26151
L11854 26151
" />
<path d="M11235 26291
L11657 26432
L11657 26066
" />
<path d="M11263 25926
L11854 25729
L11263 25532
" />
<path d="M14721 13660
L14702 13679
L14646 13697
L14608 13697
L14552 13679
L14515 13641
L14496 13604
L14477 13529
L14477 13472
L14496 13397
L14515 13360
L14552 13322
L14608 13304
L14646 13304
L14702 13322
L14721 13341
" />
<path d="M15096 13697
L14871 13697
" />
<path d="M14983 13697
L14983 13304
L14946 13360
L14908 13397
L14871 13416
" />
<path d="M14721 12792
L14496 12792
" />
<path d="M14608 12792
L14608 12398
L14571 12454
L14533 12492
L14496 12511
" />
<path d="M15058 12529
L15058 12792
" />
<path d="M14890 12529
L14890 12736
L14908 12773
L14946 12792
L15002 12792
L15040 12773
L15058 12754
" />
<path d="M14721 14660
L14702 14679
L14646 14697
L14608 14697
L14552 14679
L14515 14641
L14496 14604
L14477 14529
L14477 14472
L14496 14397
L14515 14360
L14552 14322
L14608 14304
L14646 14304
L14702 14322
L14721 14341
" />
<path d="M14871 14341
L14890 14322
L14927 14304
L15021 14304
L15058 14322
L15077 14341
L15096 14379
L15096 14416
L15077 14472
L14852 14697
L15096 14697
" />
<path d="M14621 15497
L14396 15497
" />
<path d="M14508 15497
L14508 15104
L14471 15160
L14433 15197
L14396 15216
" />
<path d="M14958 15235
L14958 15497
" />
<path d="M14790 15235
L14790 15441
L14808 15479
L14846 15497
L14902 15497
L14940 15479
L14958 15460
" />
<path d="M18321 7660
L18302 7679
L18246 7697
L18208 7697
L18152 7679
L18115 7641
L18096 7604
L18077 7529
L18077 7472
L18096 7397
L18115 7360
L18152 7322
L18208 7304
L18246 7304
L18302 7322
L18321 7341
" />
<path d="M18677 7304
L18490 7304
L18471 7491
L18490 7472
L18527 7454
L18621 7454
L18658 7472
L18677 7491
L18696 7529
L18696 7622
L18677 7660
L18658 7679
L18621 7697
L18527 7697
L18490 7679
L18471 7660
" />
<path d="M18208 8335
L18208 8597
" />
<path d="M18115 8185
L18021 8466
L18265 8466
" />
<path d="M18377 8204
L18640 8204
L18471 8597
" />
<path d="M18865 8204
L18902 8204
L18940 8222
L18958 8241
L18977 8279
L18996 8354
L18996 8447
L18977 8522
L18958 8560
L18940 8579
L18902 8597
L18865 8597
L18827 8579
L18808 8560
L18790 8522
L18771 8447
L18771 8354
L18790 8279
L18808 8241
L18827 8222
L18865 8204
" />
<path d="M19333 8335
L19333 8597
" />
<path d="M19165 8335
L19165 8541
L19183 8579
L19221 8597
L19277 8597
L19315 8579
L19333 8560
" />
<path d="M18221 22660
L18202 22679
L18146 22697
L18108 22697
L18052 22679
L18015 22641
L17996 22604
L17977 22529
L17977 22472
L17996 22397
L18015 22360
L18052 22322
L18108 22304
L18146 22304
L18202 22322
L18221 22341
" />
<path d="M18558 22304
L18483 22304
L18446 22322
L18427 22341
L18390 22397
L18371 22472
L18371 22622
L18390 22660
L18408 22679
L18446 22697
L18521 22697
L18558 22679
L18577 22660
L18596 22622
L18596 22529
L18577 22491
L18558 22472
L18521 22454
L18446 22454
L18408 22472
L18390 22491
L18371 22529
" />
<path d="M18308 23335
L18308 23597
" />
<path d="M18215 23185
L18121 23466
L18365 23466
" />
<path d="M18477 23204
L18740 23204
L18571 23597
" />
<path d="M18965 23204
L19002 23204
L19040 23222
L19058 23241
L19077 23279
L19096 23354
L19096 23447
L19077 23522
L19058 23560
L19040 23579
L19002 23597
L18965 23597
L18927 23579
L18908 23560
L18890 23522
L18871 23447
L18871 23354
L18890 23279
L18908 23241
L18927 23222
L18965 23204
" />
<path d="M19433 23335
L19433 23597
" />
<path d="M19265 23335
L19265 23541
L19283 23579
L19321 23597
L19377 23597
L19415 23579
L19433 23560
" />
<path d="M18133 3560
L18115 3579
L18058 3597
L18021 3597
L17965 3579
L17927 3541
L17908 3504
L17890 3429
L17890 3372
L17908 3297
L17927 3260
L17965 3222
L18021 3204
L18058 3204
L18115 3222
L18133 3241
" />
<path d="M18508 3597
L18283 3597
" />
<path d="M18396 3597
L18396 3204
L18358 3260
L18321 3297
L18283 3316
" />
<path d="M18640 3204
L18883 3204
L18752 3354
L18808 3354
L18846 3372
L18865 3391
L18883 3429
L18883 3522
L18865 3560
L18846 3579
L18808 3597
L18696 3597
L18658 3579
L18640 3560
" />
<path d="M18308 4235
L18308 4497
" />
<path d="M18215 4085
L18121 4366
L18365 4366
" />
<path d="M18477 4104
L18740 4104
L18571 4497
" />
<path d="M18965 4104
L19002 4104
L19040 4122
L19058 4141
L19077 4179
L19096 4254
L19096 4347
L19077 4422
L19058 4460
L19040 4479
L19002 4497
L18965 4497
L18927 4479
L18908 4460
L18890 4422
L18871 4347
L18871 4254
L18890 4179
L18908 4141
L18927 4122
L18965 4104
" />
<path d="M19433 4235
L19433 4497
" />
<path d="M19265 4235
L19265 4441
L19283 4479
L19321 4497
L19377 4497
L19415 4479
L19433 4460
" />
<path d="M18033 26760
L18015 26779
L17958 26797
L17921 26797
L17865 26779
L17827 26741
L17808 26704
L17790 26629
L17790 26572
L17808 26497
L17827 26460
L17865 26422
L17921 26404
L17958 26404
L18015 26422
L18033 26441
" />
<path d="M18408 26797
L18183 26797
" />
<path d="M18296 26797
L18296 26404
L18258 26460
L18221 26497
L18183 26516
" />
<path d="M18746 26535
L18746 26797
" />
<path d="M18652 26385
L18558 26666
L18802 26666
" />
<path d="M18108 27535
L18108 27797
" />
<path d="M18015 27385
L17921 27666
L18165 27666
" />
<path d="M18277 27404
L18540 27404
L18371 27797
" />
<path d="M18765 27404
L18802 27404
L18840 27422
L18858 27441
L18877 27479
L18896 27554
L18896 27647
L18877 27722
L18858 27760
L18840 27779
L18802 27797
L18765 27797
L18727 27779
L18708 27760
L18690 27722
L18671 27647
L18671 27554
L18690 27479
L18708 27441
L18727 27422
L18765 27404
" />
<path d="M19233 27535
L19233 27797
" />
<path d="M19065 27535
L19065 27741
L19083 27779
L19121 27797
L19177 27797
L19215 27779
L19233 27760
" />
<path d="M22327 9772
L22346 9791
L22365 9847
L22365 9885
L22346 9941
L22308 9979
L22271 9997
L22196 10016
L22140 10016
L22065 9997
L22027 9979
L21990 9941
L21971 9885
L21971 9847
L21990 9791
L22008 9772
" />
<path d="M22365 9397
L22365 9622
" />
<path d="M22365 9510
L21971 9510
L22027 9547
L22065 9585
L22083 9622
" />
<path d="M21971 9041
L21971 9229
L22158 9247
L22140 9229
L22121 9191
L22121 9097
L22140 9060
L22158 9041
L22196 9022
L22290 9022
L22327 9041
L22346 9060
L22365 9097
L22365 9191
L22346 9229
L22327 9247
" />
<path d="M20208 9885
L20190 9866
L20171 9828
L20171 9735
L20190 9697
L20208 9679
L20246 9660
L20283 9660
L20340 9679
L20565 9903
L20565 9660
" />
<path d="M20208 9510
L20190 9491
L20171 9454
L20171 9360
L20190 9322
L20208 9304
L20246 9285
L20283 9285
L20340 9304
L20565 9529
L20565 9285
" />
<path d="M20171 9041
L20171 9004
L20190 8966
L20208 8947
L20246 8929
L20321 8910
L20415 8910
L20490 8929
L20527 8947
L20546 8966
L20565 9004
L20565 9041
L20546 9079
L20527 9097
L20490 9116
L20415 9135
L20321 9135
L20246 9116
L20208 9097
L20190 9079
L20171 9041
" />
<path d="M20302 8741
L20565 8741
" />
<path d="M20340 8741
L20321 8722
L20302 8685
L20302 8629
L20321 8591
L20358 8572
L20565 8572
" />
<path d="M21327 20672
L21346 20691
L21365 20747
L21365 20785
L21346 20841
L21308 20879
L21271 20897
L21196 20916
L21140 20916
L21065 20897
L21027 20879
L20990 20841
L20971 20785
L20971 20747
L20990 20691
L21008 20672
" />
<path d="M21365 20297
L21365 20522
" />
<path d="M21365 20410
L20971 20410
L21027 20447
L21065 20485
L21083 20522
" />
<path d="M20971 19960
L20971 20035
L20990 20072
L21008 20091
L21065 20129
L21140 20147
L21290 20147
L21327 20129
L21346 20110
L21365 20072
L21365 19997
L21346 19960
L21327 19941
L21290 19922
L21196 19922
L21158 19941
L21140 19960
L21121 19997
L21121 20072
L21140 20110
L21158 20129
L21196 20147
" />
<path d="M20208 21385
L20190 21366
L20171 21328
L20171 21235
L20190 21197
L20208 21179
L20246 21160
L20283 21160
L20340 21179
L20565 21403
L20565 21160
" />
<path d="M20208 21010
L20190 20991
L20171 20954
L20171 20860
L20190 20822
L20208 20804
L20246 20785
L20283 20785
L20340 20804
L20565 21029
L20565 20785
" />
<path d="M20171 20541
L20171 20504
L20190 20466
L20208 20447
L20246 20429
L20321 20410
L20415 20410
L20490 20429
L20527 20447
L20546 20466
L20565 20504
L20565 20541
L20546 20579
L20527 20597
L20490 20616
L20415 20635
L20321 20635
L20246 20616
L20208 20597
L20190 20579
L20171 20541
" />
<path d="M20302 20241
L20565 20241
" />
<path d="M20340 20241
L20321 20222
L20302 20185
L20302 20129
L20321 20091
L20358 20072
L20565 20072
" />
<path d="M22327 6172
L22346 6191
L22365 6247
L22365 6285
L22346 6341
L22308 6379
L22271 6397
L22196 6416
L22140 6416
L22065 6397
L22027 6379
L21990 6341
L21971 6285
L21971 6247
L21990 6191
L22008 6172
" />
<path d="M22365 5797
L22365 6022
" />
<path d="M22365 5910
L21971 5910
L22027 5947
L22065 5985
L22083 6022
" />
<path d="M21971 5666
L21971 5404
L22365 5572
" />
<path d="M23202 6797
L23465 6797
" />
<path d="M23052 6891
L23333 6985
L23333 6741
" />
<path d="M23071 6629
L23071 6366
L23465 6535
" />
<path d="M23071 6141
L23071 6104
L23090 6066
L23108 6047
L23146 6029
L23221 6010
L23315 6010
L23390 6029
L23427 6047
L23446 6066
L23465 6104
L23465 6141
L23446 6179
L23427 6197
L23390 6216
L23315 6235
L23221 6235
L23146 6216
L23108 6197
L23090 6179
L23071 6141
" />
<path d="M23202 5672
L23465 5672
" />
<path d="M23202 5841
L23408 5841
L23446 5822
L23465 5785
L23465 5729
L23446 5691
L23427 5672
" />
<path d="M22327 24372
L22346 24391
L22365 24447
L22365 24485
L22346 24541
L22308 24579
L22271 24597
L22196 24616
L22140 24616
L22065 24597
L22027 24579
L21990 24541
L21971 24485
L21971 24447
L21990 24391
L22008 24372
" />
<path d="M22365 23997
L22365 24222
" />
<path d="M22365 24110
L21971 24110
L22027 24147
L22065 24185
L22083 24222
" />
<path d="M22140 23772
L22121 23810
L22102 23829
L22065 23847
L22046 23847
L22008 23829
L21990 23810
L21971 23772
L21971 23697
L21990 23660
L22008 23641
L22046 23622
L22065 23622
L22102 23641
L22121 23660
L22140 23697
L22140 23772
L22158 23810
L22177 23829
L22215 23847
L22290 23847
L22327 23829
L22346 23810
L22365 23772
L22365 23697
L22346 23660
L22327 23641
L22290 23622
L22215 23622
L22177 23641
L22158 23660
L22140 23697
" />
<path d="M21102 24497
L21365 24497
" />
<path d="M20952 24591
L21233 24685
L21233 24441
" />
<path d="M20971 24329
L20971 24066
L21365 24235
" />
<path d="M20971 23841
L20971 23804
L20990 23766
L21008 23747
L21046 23729
L21121 23710
L21215 23710
L21290 23729
L21327 23747
L21346 23766
L21365 23804
L21365 23841
L21346 23879
L21327 23897
L21290 23916
L21215 23935
L21121 23935
L21046 23916
L21008 23897
L20990 23879
L20971 23841
" />
<path d="M21102 23372
L21365 23372
" />
<path d="M21102 23541
L21308 23541
L21346 23522
L21365 23485
L21365 23429
L21346 23391
L21327 23372
" />
<path d="M7462 19479
L7518 19497
L7612 19497
L7649 19479
L7668 19460
L7687 19422
L7687 19385
L7668 19347
L7649 19329
L7612 19310
L7537 19291
L7499 19272
L7480 19254
L7462 19216
L7462 19179
L7480 19141
L7499 19122
L7537 19104
L7630 19104
L7687 19122
" />
<path d="M7818 19104
L7912 19497
L7987 19216
L8061 19497
L8155 19104
" />
<path d="M8511 19497
L8286 19497
" />
<path d="M8399 19497
L8399 19104
L8361 19160
L8324 19197
L8286 19216
" />
<path d="M11010 23126
L11066 23145
L11160 23145
L11197 23126
L11216 23107
L11235 23070
L11235 23032
L11216 22995
L11197 22976
L11160 22957
L11085 22938
L11047 22920
L11028 22901
L11010 22863
L11010 22826
L11028 22788
L11047 22770
L11085 22751
L11178 22751
L11235 22770
" />
<path d="M11366 22751
L11460 23145
L11535 22863
L11610 23145
L11703 22751
" />
<path d="M10221 24797
L10090 24610
" />
<path d="M9996 24797
L9996 24404
L10146 24404
L10183 24422
L10202 24441
L10221 24479
L10221 24535
L10202 24572
L10183 24591
L10146 24610
L9996 24610
" />
<path d="M10352 24404
L10596 24404
L10465 24554
L10521 24554
L10558 24572
L10577 24591
L10596 24629
L10596 24722
L10577 24760
L10558 24779
L10521 24797
L10408 24797
L10371 24779
L10352 24760
" />
<path d="M9921 25435
L9921 25697
" />
<path d="M9827 25285
L9733 25566
L9977 25566
" />
<path d="M10127 25660
L10146 25679
L10127 25697
L10108 25679
L10127 25660
L10127 25697
" />
<path d="M10277 25304
L10540 25304
L10371 25697
" />
<path d="M10690 25697
L10690 25304
" />
<path d="M10727 25547
L10840 25697
" />
<path d="M10840 25435
L10690 25585
" />
<path d="M12921 17497
L12733 17497
L12733 17104
" />
<path d="M13258 17497
L13033 17497
" />
<path d="M13146 17497
L13146 17104
L13108 17160
L13071 17197
L13033 17216
" />
<path d="M11865 12685
L11677 12816
" />
<path d="M11865 12910
L11471 12910
L11471 12760
L11490 12722
L11508 12704
L11546 12685
L11602 12685
L11640 12704
L11658 12722
L11677 12760
L11677 12910
" />
<path d="M11602 12347
L11865 12347
" />
<path d="M11452 12441
L11733 12535
L11733 12291
" />
<path d="M11602 14985
L11865 14985
" />
<path d="M11452 15079
L11733 15172
L11733 14929
" />
<path d="M11827 14779
L11846 14760
L11865 14779
L11846 14797
L11827 14779
L11865 14779
" />
<path d="M11471 14629
L11471 14366
L11865 14535
" />
<path d="M11865 14216
L11471 14216
" />
<path d="M11715 14179
L11865 14066
" />
<path d="M11602 14066
L11752 14216
" />
<path d="M13065 13585
L12877 13716
" />
<path d="M13065 13810
L12671 13810
L12671 13660
L12690 13622
L12708 13604
L12746 13585
L12802 13585
L12840 13604
L12858 13622
L12877 13660
L12877 13810
" />
<path d="M12671 13229
L12671 13416
L12858 13435
L12840 13416
L12821 13379
L12821 13285
L12840 13247
L12858 13229
L12896 13210
L12990 13210
L13027 13229
L13046 13247
L13065 13285
L13065 13379
L13046 13416
L13027 13435
" />
<path d="M12521 11835
L12521 12097
" />
<path d="M12427 11685
L12333 11966
L12577 11966
" />
<path d="M12727 12060
L12746 12079
L12727 12097
L12708 12079
L12727 12060
L12727 12097
" />
<path d="M12877 11704
L13140 11704
L12971 12097
" />
<path d="M13290 12097
L13290 11704
" />
<path d="M13327 11947
L13440 12097
" />
<path d="M13440 11835
L13290 11985
" />
<path d="M7052 18297
L6921 18110
" />
<path d="M6827 18297
L6827 17904
L6977 17904
L7015 17922
L7033 17941
L7052 17979
L7052 18035
L7033 18072
L7015 18091
L6977 18110
L6827 18110
" />
<path d="M7165 17904
L7296 18297
L7427 17904
" />
<path d="M7765 18297
L7540 18297
" />
<path d="M7652 18297
L7652 17904
L7615 17960
L7577 17997
L7540 18016
" />
<path d="M7778 11268
L7553 11268
" />
<path d="M7666 11268
L7666 10874
L7628 10931
L7591 10968
L7553 10987
" />
<path d="M8022 10874
L8060 10874
L8097 10893
L8116 10912
L8135 10949
L8153 11024
L8153 11118
L8135 11193
L8116 11231
L8097 11249
L8060 11268
L8022 11268
L7985 11249
L7966 11231
L7947 11193
L7928 11118
L7928 11024
L7947 10949
L7966 10912
L7985 10893
L8022 10874
" />
<path d="M8322 11268
L8322 10874
" />
<path d="M8360 11118
L8472 11268
" />
<path d="M8472 11006
L8322 11156
" />
<path d="M8660 11249
L8660 11268
L8641 11306
L8622 11324
" />
<path d="M9184 11268
L9147 11249
L9128 11212
L9128 10874
" />
<path d="M9334 11268
L9334 11006
" />
<path d="M9334 10874
L9316 10893
L9334 10912
L9353 10893
L9334 10874
L9334 10912
" />
<path d="M9522 11006
L9522 11268
" />
<path d="M9522 11043
L9541 11024
L9578 11006
L9634 11006
L9672 11024
L9691 11062
L9691 11268
" />
</g> 
</svg>
